<?xml version="1.0" encoding="utf-8" standalone="no"?>
<!DOCTYPE svg PUBLIC "-//W3C//DTD SVG 1.1//EN"
  "http://www.w3.org/Graphics/SVG/1.1/DTD/svg11.dtd">
<svg xmlns:xlink="http://www.w3.org/1999/xlink" width="901.3875pt" height="604.963125pt" viewBox="0 0 901.3875 604.963125" xmlns="http://www.w3.org/2000/svg" version="1.1">
 <metadata>
  <rdf:RDF xmlns:dc="http://purl.org/dc/elements/1.1/" xmlns:cc="http://creativecommons.org/ns#" xmlns:rdf="http://www.w3.org/1999/02/22-rdf-syntax-ns#">
   <cc:Work>
    <dc:type rdf:resource="http://purl.org/dc/dcmitype/StillImage"/>
    <dc:date>2023-05-02T12:43:41.578529</dc:date>
    <dc:format>image/svg+xml</dc:format>
    <dc:creator>
     <cc:Agent>
      <dc:title>Matplotlib v3.7.1, https://matplotlib.org/</dc:title>
     </cc:Agent>
    </dc:creator>
   </cc:Work>
  </rdf:RDF>
 </metadata>
 <defs>
  <style type="text/css">*{stroke-linejoin: round; stroke-linecap: butt}</style>
 </defs>
 <g id="figure_1">
  <g id="patch_1">
   <path d="M 0 604.963125 
L 901.3875 604.963125 
L 901.3875 0 
L 0 0 
z
" style="fill: #ffffff"/>
  </g>
  <g id="axes_1">
   <g id="patch_2">
    <path d="M 221.85 127.721739 
L 668.25 127.721739 
L 668.25 7.2 
L 221.85 7.2 
z
" style="fill: #ffffff"/>
   </g>
   <g id="patch_3">
    <path d="M 221.85 97.591304 
L 445.515971 97.591304 
L 445.515971 37.330435 
L 221.85 37.330435 
z
" clip-path="url(#pd59c634e78)" style="fill: #e6c2bc"/>
   </g>
   <g id="patch_4">
    <path d="M 445.515971 97.591304 
L 668.25 97.591304 
L 668.25 37.330435 
L 445.515971 37.330435 
z
" clip-path="url(#pd59c634e78)" style="fill: #4d2923"/>
   </g>
   <g id="matplotlib.axis_1"/>
   <g id="matplotlib.axis_2">
    <g id="ytick_1">
     <g id="text_1">
      <!-- Spontaneous interaction? -->
      <g transform="translate(7.2 73.53962) scale(0.16 -0.16)">
       <defs>
        <path id="DejaVuSerif-53" d="M 594 225 
L 594 1288 
L 953 1284 
Q 969 753 1261 498 
Q 1553 244 2150 244 
Q 2706 244 2998 464 
Q 3291 684 3291 1106 
Q 3291 1444 3114 1625 
Q 2938 1806 2369 1978 
L 1753 2163 
Q 1084 2366 811 2669 
Q 538 2972 538 3500 
Q 538 4094 959 4422 
Q 1381 4750 2144 4750 
Q 2469 4750 2856 4679 
Q 3244 4609 3681 4475 
L 3681 3481 
L 3328 3481 
Q 3275 3975 2998 4195 
Q 2722 4416 2156 4416 
Q 1663 4416 1405 4214 
Q 1147 4013 1147 3628 
Q 1147 3294 1340 3103 
Q 1534 2913 2163 2725 
L 2741 2553 
Q 3375 2363 3645 2067 
Q 3916 1772 3916 1275 
Q 3916 597 3481 253 
Q 3047 -91 2188 -91 
Q 1803 -91 1404 -12 
Q 1006 66 594 225 
z
" transform="scale(0.015625)"/>
        <path id="DejaVuSerif-70" d="M 1313 1825 
L 1313 1497 
Q 1313 897 1542 583 
Q 1772 269 2209 269 
Q 2650 269 2876 622 
Q 3103 975 3103 1663 
Q 3103 2353 2876 2703 
Q 2650 3053 2209 3053 
Q 1772 3053 1542 2737 
Q 1313 2422 1313 1825 
z
M 738 2988 
L 184 2988 
L 184 3322 
L 1313 3322 
L 1313 2803 
Q 1481 3116 1742 3264 
Q 2003 3413 2388 3413 
Q 3000 3413 3387 2928 
Q 3775 2444 3775 1663 
Q 3775 881 3387 395 
Q 3000 -91 2388 -91 
Q 2003 -91 1742 57 
Q 1481 206 1313 519 
L 1313 -997 
L 1856 -997 
L 1856 -1331 
L 184 -1331 
L 184 -997 
L 738 -997 
L 738 2988 
z
" transform="scale(0.015625)"/>
        <path id="DejaVuSerif-6f" d="M 1925 219 
Q 2388 219 2623 584 
Q 2859 950 2859 1663 
Q 2859 2375 2623 2739 
Q 2388 3103 1925 3103 
Q 1463 3103 1227 2739 
Q 991 2375 991 1663 
Q 991 950 1228 584 
Q 1466 219 1925 219 
z
M 1925 -91 
Q 1200 -91 759 389 
Q 319 869 319 1663 
Q 319 2456 758 2934 
Q 1197 3413 1925 3413 
Q 2653 3413 3092 2934 
Q 3531 2456 3531 1663 
Q 3531 869 3092 389 
Q 2653 -91 1925 -91 
z
" transform="scale(0.015625)"/>
        <path id="DejaVuSerif-6e" d="M 263 0 
L 263 331 
L 781 331 
L 781 2988 
L 231 2988 
L 231 3322 
L 1356 3322 
L 1356 2731 
Q 1516 3069 1770 3241 
Q 2025 3413 2363 3413 
Q 2913 3413 3172 3097 
Q 3431 2781 3431 2113 
L 3431 331 
L 3944 331 
L 3944 0 
L 2356 0 
L 2356 331 
L 2853 331 
L 2853 1931 
Q 2853 2541 2703 2767 
Q 2553 2994 2175 2994 
Q 1775 2994 1565 2701 
Q 1356 2409 1356 1850 
L 1356 331 
L 1856 331 
L 1856 0 
L 263 0 
z
" transform="scale(0.015625)"/>
        <path id="DejaVuSerif-74" d="M 691 2988 
L 184 2988 
L 184 3322 
L 691 3322 
L 691 4353 
L 1269 4353 
L 1269 3322 
L 2350 3322 
L 2350 2988 
L 1269 2988 
L 1269 878 
Q 1269 456 1350 337 
Q 1431 219 1650 219 
Q 1875 219 1978 351 
Q 2081 484 2088 781 
L 2522 781 
Q 2497 328 2275 118 
Q 2053 -91 1600 -91 
Q 1103 -91 897 129 
Q 691 350 691 878 
L 691 2988 
z
" transform="scale(0.015625)"/>
        <path id="DejaVuSerif-61" d="M 2547 1044 
L 2547 1747 
L 1806 1747 
Q 1378 1747 1168 1562 
Q 959 1378 959 997 
Q 959 650 1171 447 
Q 1384 244 1747 244 
Q 2106 244 2326 466 
Q 2547 688 2547 1044 
z
M 3122 2075 
L 3122 331 
L 3634 331 
L 3634 0 
L 2547 0 
L 2547 359 
Q 2356 128 2106 18 
Q 1856 -91 1522 -91 
Q 969 -91 644 203 
Q 319 497 319 997 
Q 319 1513 691 1797 
Q 1063 2081 1741 2081 
L 2547 2081 
L 2547 2309 
Q 2547 2688 2317 2895 
Q 2088 3103 1672 3103 
Q 1328 3103 1125 2947 
Q 922 2791 872 2484 
L 575 2484 
L 575 3156 
Q 875 3284 1158 3348 
Q 1441 3413 1709 3413 
Q 2400 3413 2761 3070 
Q 3122 2728 3122 2075 
z
" transform="scale(0.015625)"/>
        <path id="DejaVuSerif-65" d="M 3469 1600 
L 991 1600 
L 991 1575 
Q 991 903 1244 561 
Q 1497 219 1991 219 
Q 2369 219 2611 417 
Q 2853 616 2950 1006 
L 3413 1006 
Q 3275 459 2904 184 
Q 2534 -91 1931 -91 
Q 1203 -91 761 389 
Q 319 869 319 1663 
Q 319 2450 753 2931 
Q 1188 3413 1894 3413 
Q 2647 3413 3050 2948 
Q 3453 2484 3469 1600 
z
M 2791 1931 
Q 2772 2513 2545 2808 
Q 2319 3103 1894 3103 
Q 1497 3103 1269 2806 
Q 1041 2509 991 1931 
L 2791 1931 
z
" transform="scale(0.015625)"/>
        <path id="DejaVuSerif-75" d="M 2266 3322 
L 3341 3322 
L 3341 331 
L 3884 331 
L 3884 0 
L 2766 0 
L 2766 588 
Q 2606 256 2353 82 
Q 2100 -91 1766 -91 
Q 1213 -91 952 223 
Q 691 538 691 1209 
L 691 2988 
L 172 2988 
L 172 3322 
L 1269 3322 
L 1269 1388 
Q 1269 781 1417 556 
Q 1566 331 1947 331 
Q 2347 331 2556 625 
Q 2766 919 2766 1478 
L 2766 2988 
L 2266 2988 
L 2266 3322 
z
" transform="scale(0.015625)"/>
        <path id="DejaVuSerif-73" d="M 359 184 
L 359 959 
L 691 959 
Q 703 588 923 403 
Q 1144 219 1575 219 
Q 1963 219 2166 364 
Q 2369 509 2369 788 
Q 2369 1006 2220 1140 
Q 2072 1275 1594 1428 
L 1178 1569 
Q 750 1706 558 1912 
Q 366 2119 366 2438 
Q 366 2894 700 3153 
Q 1034 3413 1625 3413 
Q 1888 3413 2178 3344 
Q 2469 3275 2778 3144 
L 2778 2419 
L 2447 2419 
Q 2434 2741 2221 2922 
Q 2009 3103 1644 3103 
Q 1281 3103 1095 2975 
Q 909 2847 909 2591 
Q 909 2381 1050 2254 
Q 1191 2128 1613 1997 
L 2069 1856 
Q 2541 1709 2748 1489 
Q 2956 1269 2956 922 
Q 2956 450 2595 179 
Q 2234 -91 1600 -91 
Q 1278 -91 972 -22 
Q 666 47 359 184 
z
" transform="scale(0.015625)"/>
        <path id="DejaVuSerif-20" transform="scale(0.015625)"/>
        <path id="DejaVuSerif-69" d="M 622 4353 
Q 622 4497 726 4603 
Q 831 4709 978 4709 
Q 1122 4709 1226 4603 
Q 1331 4497 1331 4353 
Q 1331 4206 1228 4103 
Q 1125 4000 978 4000 
Q 831 4000 726 4103 
Q 622 4206 622 4353 
z
M 1356 331 
L 1900 331 
L 1900 0 
L 231 0 
L 231 331 
L 781 331 
L 781 2988 
L 231 2988 
L 231 3322 
L 1356 3322 
L 1356 331 
z
" transform="scale(0.015625)"/>
        <path id="DejaVuSerif-72" d="M 3059 3328 
L 3059 2497 
L 2728 2497 
Q 2713 2744 2591 2866 
Q 2469 2988 2234 2988 
Q 1809 2988 1582 2694 
Q 1356 2400 1356 1850 
L 1356 331 
L 2022 331 
L 2022 0 
L 263 0 
L 263 331 
L 781 331 
L 781 2994 
L 231 2994 
L 231 3322 
L 1356 3322 
L 1356 2731 
Q 1525 3078 1790 3245 
Q 2056 3413 2438 3413 
Q 2578 3413 2733 3391 
Q 2888 3369 3059 3328 
z
" transform="scale(0.015625)"/>
        <path id="DejaVuSerif-63" d="M 3291 997 
Q 3169 466 2822 187 
Q 2475 -91 1925 -91 
Q 1200 -91 759 389 
Q 319 869 319 1663 
Q 319 2459 759 2936 
Q 1200 3413 1925 3413 
Q 2241 3413 2553 3339 
Q 2866 3266 3181 3116 
L 3181 2266 
L 2847 2266 
Q 2781 2703 2561 2903 
Q 2341 3103 1931 3103 
Q 1466 3103 1228 2742 
Q 991 2381 991 1663 
Q 991 944 1227 581 
Q 1463 219 1931 219 
Q 2303 219 2525 412 
Q 2747 606 2828 997 
L 3291 997 
z
" transform="scale(0.015625)"/>
        <path id="DejaVuSerif-3f" d="M 1125 325 
Q 1125 500 1245 622 
Q 1366 744 1544 744 
Q 1716 744 1837 622 
Q 1959 500 1959 325 
Q 1959 153 1837 31 
Q 1716 -91 1544 -91 
Q 1366 -91 1245 29 
Q 1125 150 1125 325 
z
M 434 4459 
Q 766 4606 1064 4678 
Q 1363 4750 1625 4750 
Q 2319 4750 2720 4415 
Q 3122 4081 3122 3513 
Q 3122 2931 2776 2562 
Q 2431 2194 1734 2034 
L 1734 1241 
L 1350 1241 
L 1350 2266 
Q 1903 2400 2183 2715 
Q 2463 3031 2463 3519 
Q 2463 3947 2234 4194 
Q 2006 4441 1613 4441 
Q 1256 4441 1029 4236 
Q 803 4031 738 3647 
L 434 3647 
L 434 4459 
z
" transform="scale(0.015625)"/>
       </defs>
       <use xlink:href="#DejaVuSerif-53"/>
       <use xlink:href="#DejaVuSerif-70" x="68.505859"/>
       <use xlink:href="#DejaVuSerif-6f" x="132.519531"/>
       <use xlink:href="#DejaVuSerif-6e" x="192.724609"/>
       <use xlink:href="#DejaVuSerif-74" x="257.128906"/>
       <use xlink:href="#DejaVuSerif-61" x="297.314453"/>
       <use xlink:href="#DejaVuSerif-6e" x="356.933594"/>
       <use xlink:href="#DejaVuSerif-65" x="421.337891"/>
       <use xlink:href="#DejaVuSerif-6f" x="480.517578"/>
       <use xlink:href="#DejaVuSerif-75" x="540.722656"/>
       <use xlink:href="#DejaVuSerif-73" x="605.126953"/>
       <use xlink:href="#DejaVuSerif-20" x="656.445312"/>
       <use xlink:href="#DejaVuSerif-69" x="688.232422"/>
       <use xlink:href="#DejaVuSerif-6e" x="720.214844"/>
       <use xlink:href="#DejaVuSerif-74" x="784.619141"/>
       <use xlink:href="#DejaVuSerif-65" x="824.804688"/>
       <use xlink:href="#DejaVuSerif-72" x="883.984375"/>
       <use xlink:href="#DejaVuSerif-61" x="931.787109"/>
       <use xlink:href="#DejaVuSerif-63" x="991.40625"/>
       <use xlink:href="#DejaVuSerif-74" x="1047.412109"/>
       <use xlink:href="#DejaVuSerif-69" x="1087.597656"/>
       <use xlink:href="#DejaVuSerif-6f" x="1119.580078"/>
       <use xlink:href="#DejaVuSerif-6e" x="1179.785156"/>
       <use xlink:href="#DejaVuSerif-3f" x="1244.189453"/>
      </g>
     </g>
    </g>
   </g>
   <g id="legend_1">
    <g id="patch_5">
     <path d="M 679.45 93.34587 
L 757.4925 93.34587 
Q 760.6925 93.34587 760.6925 90.14587 
L 760.6925 44.77587 
Q 760.6925 41.57587 757.4925 41.57587 
L 679.45 41.57587 
Q 676.25 41.57587 676.25 44.77587 
L 676.25 90.14587 
Q 676.25 93.34587 679.45 93.34587 
z
" style="fill: #ffffff; opacity: 0.8; stroke: #cccccc; stroke-linejoin: miter"/>
    </g>
    <g id="patch_6">
     <path d="M 682.65 60.13337 
L 714.65 60.13337 
L 714.65 48.93337 
L 682.65 48.93337 
z
" style="fill: #e6c2bc"/>
    </g>
    <g id="text_2">
     <!-- No -->
     <g transform="translate(727.45 60.13337) scale(0.16 -0.16)">
      <defs>
       <path id="DejaVuSerif-4e" d="M 313 0 
L 313 331 
L 941 331 
L 941 4331 
L 313 4331 
L 313 4666 
L 1509 4666 
L 4306 984 
L 4306 4331 
L 3681 4331 
L 3681 4666 
L 5319 4666 
L 5319 4331 
L 4691 4331 
L 4691 -91 
L 4313 -91 
L 1325 3841 
L 1325 331 
L 1953 331 
L 1953 0 
L 313 0 
z
" transform="scale(0.015625)"/>
      </defs>
      <use xlink:href="#DejaVuSerif-4e"/>
      <use xlink:href="#DejaVuSerif-6f" x="87.5"/>
     </g>
    </g>
    <g id="patch_7">
     <path d="M 682.65 83.61837 
L 714.65 83.61837 
L 714.65 72.41837 
L 682.65 72.41837 
z
" style="fill: #4d2923"/>
    </g>
    <g id="text_3">
     <!-- Yes -->
     <g transform="translate(727.45 83.61837) scale(0.16 -0.16)">
      <defs>
       <path id="DejaVuSerif-59" d="M 1209 0 
L 1209 331 
L 1806 331 
L 1806 2009 
L 366 4331 
L -72 4331 
L -72 4666 
L 1663 4666 
L 1663 4331 
L 1119 4331 
L 2284 2444 
L 3450 4331 
L 2925 4331 
L 2925 4666 
L 4281 4666 
L 4281 4331 
L 3841 4331 
L 2438 2069 
L 2438 331 
L 3034 331 
L 3034 0 
L 1209 0 
z
" transform="scale(0.015625)"/>
      </defs>
      <use xlink:href="#DejaVuSerif-59"/>
      <use xlink:href="#DejaVuSerif-65" x="57.265625"/>
      <use xlink:href="#DejaVuSerif-73" x="116.445312"/>
     </g>
    </g>
   </g>
  </g>
  <g id="axes_2">
   <g id="patch_8">
    <path d="M 221.85 272.347826 
L 668.25 272.347826 
L 668.25 151.826087 
L 221.85 151.826087 
z
" style="fill: #ffffff"/>
   </g>
   <g id="patch_9">
    <path d="M 221.85 242.217391 
L 439.493154 242.217391 
L 439.493154 181.956522 
L 221.85 181.956522 
z
" clip-path="url(#peb801ba04d)" style="fill: #b2d6dd"/>
   </g>
   <g id="patch_10">
    <path d="M 439.493154 242.217391 
L 525.624274 242.217391 
L 525.624274 181.956522 
L 439.493154 181.956522 
z
" clip-path="url(#peb801ba04d)" style="fill: #85b1c5"/>
   </g>
   <g id="patch_11">
    <path d="M 525.624274 242.217391 
L 607.124689 242.217391 
L 607.124689 181.956522 
L 525.624274 181.956522 
z
" clip-path="url(#peb801ba04d)" style="fill: #6288a9"/>
   </g>
   <g id="patch_12">
    <path d="M 607.124689 242.217391 
L 641.391909 242.217391 
L 641.391909 181.956522 
L 607.124689 181.956522 
z
" clip-path="url(#peb801ba04d)" style="fill: #445c82"/>
   </g>
   <g id="patch_13">
    <path d="M 641.391909 242.217391 
L 668.25 242.217391 
L 668.25 181.956522 
L 641.391909 181.956522 
z
" clip-path="url(#peb801ba04d)" style="fill: #293252"/>
   </g>
   <g id="matplotlib.axis_3"/>
   <g id="matplotlib.axis_4">
    <g id="ytick_2">
     <g id="text_4">
      <!-- If yes, with whom? -->
      <g transform="translate(62.6175 218.165707) scale(0.16 -0.16)">
       <defs>
        <path id="DejaVuSerif-49" d="M 1581 331 
L 2175 331 
L 2175 0 
L 353 0 
L 353 331 
L 947 331 
L 947 4331 
L 353 4331 
L 353 4666 
L 2175 4666 
L 2175 4331 
L 1581 4331 
L 1581 331 
z
" transform="scale(0.015625)"/>
        <path id="DejaVuSerif-66" d="M 2753 4078 
L 2450 4078 
Q 2447 4313 2317 4434 
Q 2188 4556 1941 4556 
Q 1619 4556 1487 4379 
Q 1356 4203 1356 3750 
L 1356 3322 
L 2284 3322 
L 2284 2988 
L 1356 2988 
L 1356 331 
L 2094 331 
L 2094 0 
L 231 0 
L 231 331 
L 781 331 
L 781 2988 
L 231 2988 
L 231 3322 
L 781 3322 
L 781 3738 
Q 781 4294 1070 4578 
Q 1359 4863 1919 4863 
Q 2128 4863 2337 4825 
Q 2547 4788 2753 4709 
L 2753 4078 
z
" transform="scale(0.015625)"/>
        <path id="DejaVuSerif-79" d="M 1381 -609 
L 1600 -56 
L 359 2988 
L -19 2988 
L -19 3322 
L 1509 3322 
L 1509 2988 
L 978 2988 
L 1913 703 
L 2847 2988 
L 2350 2988 
L 2350 3322 
L 3597 3322 
L 3597 2988 
L 3225 2988 
L 1703 -750 
Q 1547 -1138 1356 -1280 
Q 1166 -1422 819 -1422 
Q 672 -1422 517 -1397 
Q 363 -1372 206 -1325 
L 206 -691 
L 500 -691 
Q 519 -903 608 -995 
Q 697 -1088 884 -1088 
Q 1056 -1088 1161 -992 
Q 1266 -897 1381 -609 
z
" transform="scale(0.015625)"/>
        <path id="DejaVuSerif-2c" d="M 231 -622 
Q 525 -406 662 -114 
Q 800 178 800 594 
L 800 709 
L 1416 709 
Q 1391 175 1164 -208 
Q 938 -591 481 -872 
L 231 -622 
z
" transform="scale(0.015625)"/>
        <path id="DejaVuSerif-77" d="M 3072 3322 
L 3922 728 
L 4672 2988 
L 4191 2988 
L 4191 3322 
L 5394 3322 
L 5394 2988 
L 5025 2988 
L 4038 0 
L 3559 0 
L 2741 2484 
L 1919 0 
L 1459 0 
L 475 2988 
L 103 2988 
L 103 3322 
L 1606 3322 
L 1606 2988 
L 1069 2988 
L 1813 728 
L 2669 3322 
L 3072 3322 
z
" transform="scale(0.015625)"/>
        <path id="DejaVuSerif-68" d="M 263 0 
L 263 331 
L 781 331 
L 781 4531 
L 231 4531 
L 231 4863 
L 1356 4863 
L 1356 2731 
Q 1516 3069 1770 3241 
Q 2025 3413 2363 3413 
Q 2913 3413 3172 3097 
Q 3431 2781 3431 2113 
L 3431 331 
L 3944 331 
L 3944 0 
L 2356 0 
L 2356 331 
L 2853 331 
L 2853 1931 
Q 2853 2541 2704 2764 
Q 2556 2988 2175 2988 
Q 1775 2988 1565 2697 
Q 1356 2406 1356 1850 
L 1356 331 
L 1856 331 
L 1856 0 
L 263 0 
z
" transform="scale(0.015625)"/>
        <path id="DejaVuSerif-6d" d="M 3316 2675 
Q 3481 3041 3739 3227 
Q 3997 3413 4341 3413 
Q 4863 3413 5119 3089 
Q 5375 2766 5375 2113 
L 5375 331 
L 5894 331 
L 5894 0 
L 4300 0 
L 4300 331 
L 4800 331 
L 4800 2047 
Q 4800 2556 4650 2772 
Q 4500 2988 4153 2988 
Q 3769 2988 3567 2697 
Q 3366 2406 3366 1850 
L 3366 331 
L 3866 331 
L 3866 0 
L 2291 0 
L 2291 331 
L 2791 331 
L 2791 2069 
Q 2791 2566 2641 2777 
Q 2491 2988 2144 2988 
Q 1759 2988 1557 2697 
Q 1356 2406 1356 1850 
L 1356 331 
L 1856 331 
L 1856 0 
L 263 0 
L 263 331 
L 781 331 
L 781 2994 
L 231 2994 
L 231 3322 
L 1356 3322 
L 1356 2731 
Q 1516 3063 1762 3238 
Q 2009 3413 2322 3413 
Q 2709 3413 2968 3220 
Q 3228 3028 3316 2675 
z
" transform="scale(0.015625)"/>
       </defs>
       <use xlink:href="#DejaVuSerif-49"/>
       <use xlink:href="#DejaVuSerif-66" x="39.501953"/>
       <use xlink:href="#DejaVuSerif-20" x="76.513672"/>
       <use xlink:href="#DejaVuSerif-79" x="108.300781"/>
       <use xlink:href="#DejaVuSerif-65" x="164.794922"/>
       <use xlink:href="#DejaVuSerif-73" x="223.974609"/>
       <use xlink:href="#DejaVuSerif-2c" x="275.292969"/>
       <use xlink:href="#DejaVuSerif-20" x="307.080078"/>
       <use xlink:href="#DejaVuSerif-77" x="338.867188"/>
       <use xlink:href="#DejaVuSerif-69" x="424.462891"/>
       <use xlink:href="#DejaVuSerif-74" x="456.445312"/>
       <use xlink:href="#DejaVuSerif-68" x="496.630859"/>
       <use xlink:href="#DejaVuSerif-20" x="561.035156"/>
       <use xlink:href="#DejaVuSerif-77" x="592.822266"/>
       <use xlink:href="#DejaVuSerif-68" x="678.417969"/>
       <use xlink:href="#DejaVuSerif-6f" x="742.822266"/>
       <use xlink:href="#DejaVuSerif-6d" x="803.027344"/>
       <use xlink:href="#DejaVuSerif-3f" x="897.851562"/>
      </g>
     </g>
    </g>
   </g>
   <g id="legend_2">
    <g id="patch_14">
     <path d="M 679.45 273.199457 
L 890.9875 273.199457 
Q 894.1875 273.199457 894.1875 269.999457 
L 894.1875 154.174457 
Q 894.1875 150.974457 890.9875 150.974457 
L 679.45 150.974457 
Q 676.25 150.974457 676.25 154.174457 
L 676.25 269.999457 
Q 676.25 273.199457 679.45 273.199457 
z
" style="fill: #ffffff; opacity: 0.8; stroke: #cccccc; stroke-linejoin: miter"/>
    </g>
    <g id="patch_15">
     <path d="M 682.65 169.531957 
L 714.65 169.531957 
L 714.65 158.331957 
L 682.65 158.331957 
z
" style="fill: #b2d6dd"/>
    </g>
    <g id="text_5">
     <!-- Coworker -->
     <g transform="translate(727.45 169.531957) scale(0.16 -0.16)">
      <defs>
       <path id="DejaVuSerif-43" d="M 4513 1234 
Q 4306 581 3820 245 
Q 3334 -91 2591 -91 
Q 2134 -91 1743 65 
Q 1353 222 1050 525 
Q 700 875 529 1320 
Q 359 1766 359 2328 
Q 359 3416 987 4083 
Q 1616 4750 2644 4750 
Q 3025 4750 3456 4650 
Q 3888 4550 4384 4347 
L 4384 3272 
L 4031 3272 
Q 3916 3859 3567 4137 
Q 3219 4416 2591 4416 
Q 1844 4416 1459 3886 
Q 1075 3356 1075 2328 
Q 1075 1303 1459 773 
Q 1844 244 2591 244 
Q 3113 244 3450 492 
Q 3788 741 3938 1234 
L 4513 1234 
z
" transform="scale(0.015625)"/>
       <path id="DejaVuSerif-6b" d="M 1831 0 
L 219 0 
L 219 331 
L 738 331 
L 738 4531 
L 184 4531 
L 184 4863 
L 1313 4863 
L 1313 1697 
L 2713 2988 
L 2234 2988 
L 2234 3322 
L 3738 3322 
L 3738 2988 
L 3169 2988 
L 2181 2075 
L 3444 331 
L 3922 331 
L 3922 0 
L 2284 0 
L 2284 331 
L 2759 331 
L 1766 1697 
L 1313 1275 
L 1313 331 
L 1831 331 
L 1831 0 
z
" transform="scale(0.015625)"/>
      </defs>
      <use xlink:href="#DejaVuSerif-43"/>
      <use xlink:href="#DejaVuSerif-6f" x="76.513672"/>
      <use xlink:href="#DejaVuSerif-77" x="136.71875"/>
      <use xlink:href="#DejaVuSerif-6f" x="222.314453"/>
      <use xlink:href="#DejaVuSerif-72" x="282.519531"/>
      <use xlink:href="#DejaVuSerif-6b" x="330.322266"/>
      <use xlink:href="#DejaVuSerif-65" x="390.917969"/>
      <use xlink:href="#DejaVuSerif-72" x="450.097656"/>
     </g>
    </g>
    <g id="patch_16">
     <path d="M 682.65 193.016957 
L 714.65 193.016957 
L 714.65 181.816957 
L 682.65 181.816957 
z
" style="fill: #85b1c5"/>
    </g>
    <g id="text_6">
     <!-- Household Member -->
     <g transform="translate(727.45 193.016957) scale(0.16 -0.16)">
      <defs>
       <path id="DejaVuSerif-48" d="M 353 0 
L 353 331 
L 947 331 
L 947 4331 
L 353 4331 
L 353 4666 
L 2175 4666 
L 2175 4331 
L 1581 4331 
L 1581 2719 
L 4000 2719 
L 4000 4331 
L 3406 4331 
L 3406 4666 
L 5228 4666 
L 5228 4331 
L 4634 4331 
L 4634 331 
L 5228 331 
L 5228 0 
L 3406 0 
L 3406 331 
L 4000 331 
L 4000 2338 
L 1581 2338 
L 1581 331 
L 2175 331 
L 2175 0 
L 353 0 
z
" transform="scale(0.015625)"/>
       <path id="DejaVuSerif-6c" d="M 1313 331 
L 1856 331 
L 1856 0 
L 184 0 
L 184 331 
L 738 331 
L 738 4531 
L 184 4531 
L 184 4863 
L 1313 4863 
L 1313 331 
z
" transform="scale(0.015625)"/>
       <path id="DejaVuSerif-64" d="M 3359 331 
L 3909 331 
L 3909 0 
L 2784 0 
L 2784 519 
Q 2616 206 2355 57 
Q 2094 -91 1709 -91 
Q 1097 -91 708 395 
Q 319 881 319 1663 
Q 319 2444 706 2928 
Q 1094 3413 1709 3413 
Q 2094 3413 2355 3264 
Q 2616 3116 2784 2803 
L 2784 4531 
L 2241 4531 
L 2241 4863 
L 3359 4863 
L 3359 331 
z
M 2784 1497 
L 2784 1825 
Q 2784 2422 2554 2737 
Q 2325 3053 1888 3053 
Q 1444 3053 1217 2703 
Q 991 2353 991 1663 
Q 991 975 1217 622 
Q 1444 269 1888 269 
Q 2325 269 2554 583 
Q 2784 897 2784 1497 
z
" transform="scale(0.015625)"/>
       <path id="DejaVuSerif-4d" d="M 353 0 
L 353 331 
L 947 331 
L 947 4331 
L 319 4331 
L 319 4666 
L 1678 4666 
L 3316 1344 
L 4953 4666 
L 6228 4666 
L 6228 4331 
L 5606 4331 
L 5606 331 
L 6203 331 
L 6203 0 
L 4378 0 
L 4378 331 
L 4972 331 
L 4972 3938 
L 3372 684 
L 2931 684 
L 1331 3938 
L 1331 331 
L 1925 331 
L 1925 0 
L 353 0 
z
" transform="scale(0.015625)"/>
       <path id="DejaVuSerif-62" d="M 738 331 
L 738 4531 
L 184 4531 
L 184 4863 
L 1313 4863 
L 1313 2803 
Q 1481 3116 1742 3264 
Q 2003 3413 2388 3413 
Q 3000 3413 3387 2928 
Q 3775 2444 3775 1663 
Q 3775 881 3387 395 
Q 3000 -91 2388 -91 
Q 2003 -91 1742 57 
Q 1481 206 1313 519 
L 1313 0 
L 184 0 
L 184 331 
L 738 331 
z
M 1313 1497 
Q 1313 897 1542 583 
Q 1772 269 2209 269 
Q 2650 269 2876 622 
Q 3103 975 3103 1663 
Q 3103 2353 2876 2703 
Q 2650 3053 2209 3053 
Q 1772 3053 1542 2737 
Q 1313 2422 1313 1825 
L 1313 1497 
z
" transform="scale(0.015625)"/>
      </defs>
      <use xlink:href="#DejaVuSerif-48"/>
      <use xlink:href="#DejaVuSerif-6f" x="87.207031"/>
      <use xlink:href="#DejaVuSerif-75" x="147.412109"/>
      <use xlink:href="#DejaVuSerif-73" x="211.816406"/>
      <use xlink:href="#DejaVuSerif-65" x="263.134766"/>
      <use xlink:href="#DejaVuSerif-68" x="322.314453"/>
      <use xlink:href="#DejaVuSerif-6f" x="386.71875"/>
      <use xlink:href="#DejaVuSerif-6c" x="446.923828"/>
      <use xlink:href="#DejaVuSerif-64" x="478.90625"/>
      <use xlink:href="#DejaVuSerif-20" x="542.919922"/>
      <use xlink:href="#DejaVuSerif-4d" x="574.707031"/>
      <use xlink:href="#DejaVuSerif-65" x="677.099609"/>
      <use xlink:href="#DejaVuSerif-6d" x="736.279297"/>
      <use xlink:href="#DejaVuSerif-62" x="831.103516"/>
      <use xlink:href="#DejaVuSerif-65" x="895.117188"/>
      <use xlink:href="#DejaVuSerif-72" x="954.296875"/>
     </g>
    </g>
    <g id="patch_17">
     <path d="M 682.65 216.501957 
L 714.65 216.501957 
L 714.65 205.301957 
L 682.65 205.301957 
z
" style="fill: #6288a9"/>
    </g>
    <g id="text_7">
     <!-- Friend -->
     <g transform="translate(727.45 216.501957) scale(0.16 -0.16)">
      <defs>
       <path id="DejaVuSerif-46" d="M 353 0 
L 353 331 
L 947 331 
L 947 4331 
L 353 4331 
L 353 4666 
L 4172 4666 
L 4172 3628 
L 3788 3628 
L 3788 4281 
L 1581 4281 
L 1581 2719 
L 3175 2719 
L 3175 3303 
L 3559 3303 
L 3559 1753 
L 3175 1753 
L 3175 2338 
L 1581 2338 
L 1581 331 
L 2328 331 
L 2328 0 
L 353 0 
z
" transform="scale(0.015625)"/>
      </defs>
      <use xlink:href="#DejaVuSerif-46"/>
      <use xlink:href="#DejaVuSerif-72" x="69.384766"/>
      <use xlink:href="#DejaVuSerif-69" x="117.1875"/>
      <use xlink:href="#DejaVuSerif-65" x="149.169922"/>
      <use xlink:href="#DejaVuSerif-6e" x="208.349609"/>
      <use xlink:href="#DejaVuSerif-64" x="272.753906"/>
     </g>
    </g>
    <g id="patch_18">
     <path d="M 682.65 239.986957 
L 714.65 239.986957 
L 714.65 228.786957 
L 682.65 228.786957 
z
" style="fill: #445c82"/>
    </g>
    <g id="text_8">
     <!-- Other -->
     <g transform="translate(727.45 239.986957) scale(0.16 -0.16)">
      <defs>
       <path id="DejaVuSerif-4f" d="M 2625 244 
Q 3391 244 3781 770 
Q 4172 1297 4172 2328 
Q 4172 3363 3781 3889 
Q 3391 4416 2625 4416 
Q 1856 4416 1465 3889 
Q 1075 3363 1075 2328 
Q 1075 1297 1465 770 
Q 1856 244 2625 244 
z
M 2625 -91 
Q 2150 -91 1751 65 
Q 1353 222 1050 525 
Q 700 875 529 1319 
Q 359 1763 359 2328 
Q 359 2894 529 3339 
Q 700 3784 1050 4134 
Q 1356 4441 1750 4595 
Q 2144 4750 2625 4750 
Q 3641 4750 4266 4084 
Q 4891 3419 4891 2328 
Q 4891 1769 4719 1320 
Q 4547 872 4197 525 
Q 3891 219 3497 64 
Q 3103 -91 2625 -91 
z
" transform="scale(0.015625)"/>
      </defs>
      <use xlink:href="#DejaVuSerif-4f"/>
      <use xlink:href="#DejaVuSerif-74" x="81.982422"/>
      <use xlink:href="#DejaVuSerif-68" x="122.167969"/>
      <use xlink:href="#DejaVuSerif-65" x="186.572266"/>
      <use xlink:href="#DejaVuSerif-72" x="245.751953"/>
     </g>
    </g>
    <g id="patch_19">
     <path d="M 682.65 263.471957 
L 714.65 263.471957 
L 714.65 252.271957 
L 682.65 252.271957 
z
" style="fill: #293252"/>
    </g>
    <g id="text_9">
     <!-- Supervisor -->
     <g transform="translate(727.45 263.471957) scale(0.16 -0.16)">
      <defs>
       <path id="DejaVuSerif-76" d="M 1581 0 
L 359 2988 
L -19 2988 
L -19 3322 
L 1509 3322 
L 1509 2988 
L 978 2988 
L 1913 703 
L 2847 2988 
L 2350 2988 
L 2350 3322 
L 3597 3322 
L 3597 2988 
L 3225 2988 
L 2003 0 
L 1581 0 
z
" transform="scale(0.015625)"/>
      </defs>
      <use xlink:href="#DejaVuSerif-53"/>
      <use xlink:href="#DejaVuSerif-75" x="68.505859"/>
      <use xlink:href="#DejaVuSerif-70" x="132.910156"/>
      <use xlink:href="#DejaVuSerif-65" x="196.923828"/>
      <use xlink:href="#DejaVuSerif-72" x="256.103516"/>
      <use xlink:href="#DejaVuSerif-76" x="303.90625"/>
      <use xlink:href="#DejaVuSerif-69" x="360.400391"/>
      <use xlink:href="#DejaVuSerif-73" x="392.382812"/>
      <use xlink:href="#DejaVuSerif-6f" x="443.701172"/>
      <use xlink:href="#DejaVuSerif-72" x="503.90625"/>
     </g>
    </g>
   </g>
  </g>
  <g id="axes_3">
   <g id="patch_20">
    <path d="M 221.85 416.973913 
L 668.25 416.973913 
L 668.25 296.452174 
L 221.85 296.452174 
z
" style="fill: #ffffff"/>
   </g>
   <g id="patch_21">
    <path d="M 221.85 386.843478 
L 409.170251 386.843478 
L 409.170251 326.582609 
L 221.85 326.582609 
z
" clip-path="url(#p9545cdcbe4)" style="fill: #b4dbbc"/>
   </g>
   <g id="patch_22">
    <path d="M 409.170251 386.843478 
L 484.657516 386.843478 
L 484.657516 326.582609 
L 409.170251 326.582609 
z
" clip-path="url(#p9545cdcbe4)" style="fill: #8ec398"/>
   </g>
   <g id="patch_23">
    <path d="M 484.657516 386.843478 
L 559.212839 386.843478 
L 559.212839 326.582609 
L 484.657516 326.582609 
z
" clip-path="url(#p9545cdcbe4)" style="fill: #6aa676"/>
   </g>
   <g id="patch_24">
    <path d="M 559.212839 386.843478 
L 604.877975 386.843478 
L 604.877975 326.582609 
L 559.212839 326.582609 
z
" clip-path="url(#p9545cdcbe4)" style="fill: #4b8757"/>
   </g>
   <g id="patch_25">
    <path d="M 604.877975 386.843478 
L 637.495929 386.843478 
L 637.495929 326.582609 
L 604.877975 326.582609 
z
" clip-path="url(#p9545cdcbe4)" style="fill: #31663b"/>
   </g>
   <g id="patch_26">
    <path d="M 637.495929 386.843478 
L 668.25 386.843478 
L 668.25 326.582609 
L 637.495929 326.582609 
z
" clip-path="url(#p9545cdcbe4)" style="fill: #1b4223"/>
   </g>
   <g id="matplotlib.axis_5"/>
   <g id="matplotlib.axis_6">
    <g id="ytick_3">
     <g id="text_10">
      <!-- If yes, where? -->
      <g transform="translate(101.4675 362.791793) scale(0.16 -0.16)">
       <use xlink:href="#DejaVuSerif-49"/>
       <use xlink:href="#DejaVuSerif-66" x="39.501953"/>
       <use xlink:href="#DejaVuSerif-20" x="76.513672"/>
       <use xlink:href="#DejaVuSerif-79" x="108.300781"/>
       <use xlink:href="#DejaVuSerif-65" x="164.794922"/>
       <use xlink:href="#DejaVuSerif-73" x="223.974609"/>
       <use xlink:href="#DejaVuSerif-2c" x="275.292969"/>
       <use xlink:href="#DejaVuSerif-20" x="307.080078"/>
       <use xlink:href="#DejaVuSerif-77" x="338.867188"/>
       <use xlink:href="#DejaVuSerif-68" x="424.462891"/>
       <use xlink:href="#DejaVuSerif-65" x="488.867188"/>
       <use xlink:href="#DejaVuSerif-72" x="548.046875"/>
       <use xlink:href="#DejaVuSerif-65" x="595.849609"/>
       <use xlink:href="#DejaVuSerif-3f" x="655.029297"/>
      </g>
     </g>
    </g>
   </g>
   <g id="legend_3">
    <g id="patch_27">
     <path d="M 679.45 429.795543 
L 849.6375 429.795543 
Q 852.8375 429.795543 852.8375 426.595543 
L 852.8375 286.830543 
Q 852.8375 283.630543 849.6375 283.630543 
L 679.45 283.630543 
Q 676.25 283.630543 676.25 286.830543 
L 676.25 426.595543 
Q 676.25 429.795543 679.45 429.795543 
z
" style="fill: #ffffff; opacity: 0.8; stroke: #cccccc; stroke-linejoin: miter"/>
    </g>
    <g id="patch_28">
     <path d="M 682.65 302.188043 
L 714.65 302.188043 
L 714.65 290.988043 
L 682.65 290.988043 
z
" style="fill: #b4dbbc"/>
    </g>
    <g id="text_11">
     <!-- Desk -->
     <g transform="translate(727.45 302.188043) scale(0.16 -0.16)">
      <defs>
       <path id="DejaVuSerif-44" d="M 1581 331 
L 2163 331 
Q 3072 331 3558 850 
Q 4044 1369 4044 2338 
Q 4044 3306 3559 3818 
Q 3075 4331 2163 4331 
L 1581 4331 
L 1581 331 
z
M 353 0 
L 353 331 
L 947 331 
L 947 4331 
L 353 4331 
L 353 4666 
L 2209 4666 
Q 3416 4666 4089 4050 
Q 4763 3434 4763 2338 
Q 4763 1238 4088 619 
Q 3413 0 2209 0 
L 353 0 
z
" transform="scale(0.015625)"/>
      </defs>
      <use xlink:href="#DejaVuSerif-44"/>
      <use xlink:href="#DejaVuSerif-65" x="80.175781"/>
      <use xlink:href="#DejaVuSerif-73" x="139.355469"/>
      <use xlink:href="#DejaVuSerif-6b" x="190.673828"/>
     </g>
    </g>
    <g id="patch_29">
     <path d="M 682.65 325.673043 
L 714.65 325.673043 
L 714.65 314.473043 
L 682.65 314.473043 
z
" style="fill: #8ec398"/>
    </g>
    <g id="text_12">
     <!-- Work - remote -->
     <g transform="translate(727.45 325.673043) scale(0.16 -0.16)">
      <defs>
       <path id="DejaVuSerif-57" d="M 4878 0 
L 4366 0 
L 3297 3794 
L 2228 0 
L 1716 0 
L 494 4331 
L 31 4331 
L 31 4666 
L 1734 4666 
L 1734 4331 
L 1153 4331 
L 2125 884 
L 3188 4666 
L 3694 4666 
L 4775 844 
L 5753 4331 
L 5216 4331 
L 5216 4666 
L 6559 4666 
L 6559 4331 
L 6100 4331 
L 4878 0 
z
" transform="scale(0.015625)"/>
       <path id="DejaVuSerif-2d" d="M 281 1959 
L 1881 1959 
L 1881 1472 
L 281 1472 
L 281 1959 
z
" transform="scale(0.015625)"/>
      </defs>
      <use xlink:href="#DejaVuSerif-57"/>
      <use xlink:href="#DejaVuSerif-6f" x="96.033203"/>
      <use xlink:href="#DejaVuSerif-72" x="156.238281"/>
      <use xlink:href="#DejaVuSerif-6b" x="204.041016"/>
      <use xlink:href="#DejaVuSerif-20" x="264.636719"/>
      <use xlink:href="#DejaVuSerif-2d" x="296.423828"/>
      <use xlink:href="#DejaVuSerif-20" x="330.212891"/>
      <use xlink:href="#DejaVuSerif-72" x="362"/>
      <use xlink:href="#DejaVuSerif-65" x="409.802734"/>
      <use xlink:href="#DejaVuSerif-6d" x="468.982422"/>
      <use xlink:href="#DejaVuSerif-6f" x="563.806641"/>
      <use xlink:href="#DejaVuSerif-74" x="624.011719"/>
      <use xlink:href="#DejaVuSerif-65" x="664.197266"/>
     </g>
    </g>
    <g id="patch_30">
     <path d="M 682.65 349.158043 
L 714.65 349.158043 
L 714.65 337.958043 
L 682.65 337.958043 
z
" style="fill: #6aa676"/>
    </g>
    <g id="text_13">
     <!-- Other -->
     <g transform="translate(727.45 349.158043) scale(0.16 -0.16)">
      <use xlink:href="#DejaVuSerif-4f"/>
      <use xlink:href="#DejaVuSerif-74" x="81.982422"/>
      <use xlink:href="#DejaVuSerif-68" x="122.167969"/>
      <use xlink:href="#DejaVuSerif-65" x="186.572266"/>
      <use xlink:href="#DejaVuSerif-72" x="245.751953"/>
     </g>
    </g>
    <g id="patch_31">
     <path d="M 682.65 372.643043 
L 714.65 372.643043 
L 714.65 361.443043 
L 682.65 361.443043 
z
" style="fill: #4b8757"/>
    </g>
    <g id="text_14">
     <!-- Canteen -->
     <g transform="translate(727.45 372.643043) scale(0.16 -0.16)">
      <use xlink:href="#DejaVuSerif-43"/>
      <use xlink:href="#DejaVuSerif-61" x="76.513672"/>
      <use xlink:href="#DejaVuSerif-6e" x="136.132812"/>
      <use xlink:href="#DejaVuSerif-74" x="200.537109"/>
      <use xlink:href="#DejaVuSerif-65" x="240.722656"/>
      <use xlink:href="#DejaVuSerif-65" x="299.902344"/>
      <use xlink:href="#DejaVuSerif-6e" x="359.082031"/>
     </g>
    </g>
    <g id="patch_32">
     <path d="M 682.65 396.128043 
L 714.65 396.128043 
L 714.65 384.928043 
L 682.65 384.928043 
z
" style="fill: #31663b"/>
    </g>
    <g id="text_15">
     <!-- Hallway -->
     <g transform="translate(727.45 396.128043) scale(0.16 -0.16)">
      <use xlink:href="#DejaVuSerif-48"/>
      <use xlink:href="#DejaVuSerif-61" x="87.207031"/>
      <use xlink:href="#DejaVuSerif-6c" x="146.826172"/>
      <use xlink:href="#DejaVuSerif-6c" x="178.808594"/>
      <use xlink:href="#DejaVuSerif-77" x="210.791016"/>
      <use xlink:href="#DejaVuSerif-61" x="296.386719"/>
      <use xlink:href="#DejaVuSerif-79" x="356.005859"/>
     </g>
    </g>
    <g id="patch_33">
     <path d="M 682.65 419.840543 
L 714.65 419.840543 
L 714.65 408.640543 
L 682.65 408.640543 
z
" style="fill: #1b4223"/>
    </g>
    <g id="text_16">
     <!-- Meeting Room -->
     <g transform="translate(727.45 419.840543) scale(0.16 -0.16)">
      <defs>
       <path id="DejaVuSerif-67" d="M 3359 2988 
L 3359 72 
Q 3359 -644 2965 -1033 
Q 2572 -1422 1844 -1422 
Q 1516 -1422 1216 -1362 
Q 916 -1303 641 -1184 
L 641 -488 
L 941 -488 
Q 997 -813 1206 -963 
Q 1416 -1113 1806 -1113 
Q 2313 -1113 2548 -827 
Q 2784 -541 2784 72 
L 2784 519 
Q 2616 206 2355 57 
Q 2094 -91 1709 -91 
Q 1097 -91 708 395 
Q 319 881 319 1663 
Q 319 2444 706 2928 
Q 1094 3413 1709 3413 
Q 2094 3413 2355 3264 
Q 2616 3116 2784 2803 
L 2784 3322 
L 3909 3322 
L 3909 2988 
L 3359 2988 
z
M 2784 1825 
Q 2784 2422 2554 2737 
Q 2325 3053 1888 3053 
Q 1444 3053 1217 2703 
Q 991 2353 991 1663 
Q 991 975 1217 622 
Q 1444 269 1888 269 
Q 2325 269 2554 583 
Q 2784 897 2784 1497 
L 2784 1825 
z
" transform="scale(0.015625)"/>
       <path id="DejaVuSerif-52" d="M 3066 2316 
Q 3284 2256 3442 2114 
Q 3600 1972 3725 1716 
L 4403 331 
L 4972 331 
L 4972 0 
L 3872 0 
L 3144 1484 
Q 2934 1916 2759 2042 
Q 2584 2169 2278 2169 
L 1581 2169 
L 1581 331 
L 2241 331 
L 2241 0 
L 353 0 
L 353 331 
L 947 331 
L 947 4331 
L 353 4331 
L 353 4666 
L 2719 4666 
Q 3400 4666 3770 4341 
Q 4141 4016 4141 3419 
Q 4141 2938 3870 2661 
Q 3600 2384 3066 2316 
z
M 1581 2503 
L 2503 2503 
Q 2975 2503 3200 2726 
Q 3425 2950 3425 3419 
Q 3425 3888 3200 4109 
Q 2975 4331 2503 4331 
L 1581 4331 
L 1581 2503 
z
" transform="scale(0.015625)"/>
      </defs>
      <use xlink:href="#DejaVuSerif-4d"/>
      <use xlink:href="#DejaVuSerif-65" x="102.392578"/>
      <use xlink:href="#DejaVuSerif-65" x="161.572266"/>
      <use xlink:href="#DejaVuSerif-74" x="220.751953"/>
      <use xlink:href="#DejaVuSerif-69" x="260.9375"/>
      <use xlink:href="#DejaVuSerif-6e" x="292.919922"/>
      <use xlink:href="#DejaVuSerif-67" x="357.324219"/>
      <use xlink:href="#DejaVuSerif-20" x="421.337891"/>
      <use xlink:href="#DejaVuSerif-52" x="453.125"/>
      <use xlink:href="#DejaVuSerif-6f" x="528.417969"/>
      <use xlink:href="#DejaVuSerif-6f" x="588.623047"/>
      <use xlink:href="#DejaVuSerif-6d" x="648.828125"/>
     </g>
    </g>
   </g>
  </g>
  <g id="axes_4">
   <g id="patch_34">
    <path d="M 221.85 561.6 
L 668.25 561.6 
L 668.25 441.078261 
L 221.85 441.078261 
z
" style="fill: #ffffff"/>
   </g>
   <g id="patch_35">
    <path d="M 221.85 531.469565 
L 399.300932 531.469565 
L 399.300932 471.208696 
L 221.85 471.208696 
z
" clip-path="url(#p105470411d)" style="fill: #e3bddd"/>
   </g>
   <g id="patch_36">
    <path d="M 399.300932 531.469565 
L 486.17795 531.469565 
L 486.17795 471.208696 
L 399.300932 471.208696 
z
" clip-path="url(#p105470411d)" style="fill: #c292c5"/>
   </g>
   <g id="patch_37">
    <path d="M 486.17795 531.469565 
L 563.812733 531.469565 
L 563.812733 471.208696 
L 486.17795 471.208696 
z
" clip-path="url(#p105470411d)" style="fill: #986ca9"/>
   </g>
   <g id="patch_38">
    <path d="M 563.812733 531.469565 
L 619.266149 531.469565 
L 619.266149 471.208696 
L 563.812733 471.208696 
z
" clip-path="url(#p105470411d)" style="fill: #674a82"/>
   </g>
   <g id="patch_39">
    <path d="M 619.266149 531.469565 
L 668.25 531.469565 
L 668.25 471.208696 
L 619.266149 471.208696 
z
" clip-path="url(#p105470411d)" style="fill: #382b52"/>
   </g>
   <g id="matplotlib.axis_7">
    <g id="xtick_1">
     <g id="line2d_1">
      <defs>
       <path id="m73a71ee6d2" d="M 0 0 
L 0 3.5 
" style="stroke: #000000; stroke-width: 0.8"/>
      </defs>
      <g>
       <use xlink:href="#m73a71ee6d2" x="221.85" y="561.6" style="stroke: #000000; stroke-width: 0.8"/>
      </g>
     </g>
     <g id="text_17">
      <!-- 0% -->
      <g transform="translate(211.538359 578.477969) scale(0.13 -0.13)">
       <defs>
        <path id="DejaVuSerif-30" d="M 2034 219 
Q 2513 219 2750 744 
Q 2988 1269 2988 2328 
Q 2988 3391 2750 3916 
Q 2513 4441 2034 4441 
Q 1556 4441 1318 3916 
Q 1081 3391 1081 2328 
Q 1081 1269 1318 744 
Q 1556 219 2034 219 
z
M 2034 -91 
Q 1275 -91 848 546 
Q 422 1184 422 2328 
Q 422 3475 848 4112 
Q 1275 4750 2034 4750 
Q 2797 4750 3222 4112 
Q 3647 3475 3647 2328 
Q 3647 1184 3222 546 
Q 2797 -91 2034 -91 
z
" transform="scale(0.015625)"/>
        <path id="DejaVuSerif-25" d="M 1434 4459 
Q 1159 4459 1004 4200 
Q 850 3941 850 3475 
Q 850 3016 1008 2753 
Q 1166 2491 1434 2491 
Q 1700 2491 1854 2752 
Q 2009 3013 2009 3475 
Q 2009 3938 1854 4198 
Q 1700 4459 1434 4459 
z
M 4653 2169 
Q 4381 2169 4226 1906 
Q 4072 1644 4072 1178 
Q 4072 719 4228 458 
Q 4384 197 4653 197 
Q 4922 197 5075 458 
Q 5228 719 5228 1178 
Q 5228 1641 5073 1905 
Q 4919 2169 4653 2169 
z
M 4653 2450 
Q 5147 2450 5437 2106 
Q 5728 1763 5728 1178 
Q 5728 594 5436 251 
Q 5144 -91 4653 -91 
Q 4153 -91 3862 251 
Q 3572 594 3572 1178 
Q 3572 1766 3864 2108 
Q 4156 2450 4653 2450 
z
M 4263 4750 
L 4738 4750 
L 1819 -91 
L 1344 -91 
L 4263 4750 
z
M 1428 4750 
Q 1922 4750 2215 4408 
Q 2509 4066 2509 3481 
Q 2509 2891 2217 2550 
Q 1925 2209 1428 2209 
Q 931 2209 642 2551 
Q 353 2894 353 3481 
Q 353 4063 643 4406 
Q 934 4750 1428 4750 
z
" transform="scale(0.015625)"/>
       </defs>
       <use xlink:href="#DejaVuSerif-30"/>
       <use xlink:href="#DejaVuSerif-25" x="63.623047"/>
      </g>
     </g>
    </g>
    <g id="xtick_2">
     <g id="line2d_2">
      <g>
       <use xlink:href="#m73a71ee6d2" x="333.45" y="561.6" style="stroke: #000000; stroke-width: 0.8"/>
      </g>
     </g>
     <g id="text_18">
      <!-- 25% -->
      <g transform="translate(319.002734 578.477969) scale(0.13 -0.13)">
       <defs>
        <path id="DejaVuSerif-32" d="M 819 3553 
L 469 3553 
L 469 4384 
Q 803 4563 1142 4656 
Q 1481 4750 1806 4750 
Q 2534 4750 2956 4397 
Q 3378 4044 3378 3438 
Q 3378 2753 2422 1800 
Q 2347 1728 2309 1691 
L 1131 513 
L 3078 513 
L 3078 1088 
L 3444 1088 
L 3444 0 
L 434 0 
L 434 341 
L 1850 1753 
Q 2319 2222 2519 2614 
Q 2719 3006 2719 3438 
Q 2719 3909 2473 4175 
Q 2228 4441 1797 4441 
Q 1350 4441 1106 4219 
Q 863 3997 819 3553 
z
" transform="scale(0.015625)"/>
        <path id="DejaVuSerif-35" d="M 3219 4666 
L 3219 4153 
L 1081 4153 
L 1081 2816 
Q 1244 2928 1461 2984 
Q 1678 3041 1947 3041 
Q 2703 3041 3140 2622 
Q 3578 2203 3578 1478 
Q 3578 738 3136 323 
Q 2694 -91 1894 -91 
Q 1572 -91 1234 -12 
Q 897 66 544 225 
L 544 1131 
L 897 1131 
Q 925 688 1179 453 
Q 1434 219 1894 219 
Q 2388 219 2653 544 
Q 2919 869 2919 1478 
Q 2919 2084 2655 2407 
Q 2391 2731 1894 2731 
Q 1613 2731 1398 2631 
Q 1184 2531 1019 2322 
L 750 2322 
L 750 4666 
L 3219 4666 
z
" transform="scale(0.015625)"/>
       </defs>
       <use xlink:href="#DejaVuSerif-32"/>
       <use xlink:href="#DejaVuSerif-35" x="63.623047"/>
       <use xlink:href="#DejaVuSerif-25" x="127.246094"/>
      </g>
     </g>
    </g>
    <g id="xtick_3">
     <g id="line2d_3">
      <g>
       <use xlink:href="#m73a71ee6d2" x="445.05" y="561.6" style="stroke: #000000; stroke-width: 0.8"/>
      </g>
     </g>
     <g id="text_19">
      <!-- 50% -->
      <g transform="translate(430.602734 578.477969) scale(0.13 -0.13)">
       <use xlink:href="#DejaVuSerif-35"/>
       <use xlink:href="#DejaVuSerif-30" x="63.623047"/>
       <use xlink:href="#DejaVuSerif-25" x="127.246094"/>
      </g>
     </g>
    </g>
    <g id="xtick_4">
     <g id="line2d_4">
      <g>
       <use xlink:href="#m73a71ee6d2" x="556.65" y="561.6" style="stroke: #000000; stroke-width: 0.8"/>
      </g>
     </g>
     <g id="text_20">
      <!-- 75% -->
      <g transform="translate(542.202734 578.477969) scale(0.13 -0.13)">
       <defs>
        <path id="DejaVuSerif-37" d="M 3609 4347 
L 1784 0 
L 1319 0 
L 3059 4153 
L 903 4153 
L 903 3578 
L 538 3578 
L 538 4666 
L 3609 4666 
L 3609 4347 
z
" transform="scale(0.015625)"/>
       </defs>
       <use xlink:href="#DejaVuSerif-37"/>
       <use xlink:href="#DejaVuSerif-35" x="63.623047"/>
       <use xlink:href="#DejaVuSerif-25" x="127.246094"/>
      </g>
     </g>
    </g>
    <g id="xtick_5">
     <g id="line2d_5">
      <g>
       <use xlink:href="#m73a71ee6d2" x="668.25" y="561.6" style="stroke: #000000; stroke-width: 0.8"/>
      </g>
     </g>
     <g id="text_21">
      <!-- 100% -->
      <g transform="translate(649.667109 578.477969) scale(0.13 -0.13)">
       <defs>
        <path id="DejaVuSerif-31" d="M 909 0 
L 909 331 
L 1722 331 
L 1722 4213 
L 781 3603 
L 781 4013 
L 1919 4750 
L 2350 4750 
L 2350 331 
L 3163 331 
L 3163 0 
L 909 0 
z
" transform="scale(0.015625)"/>
       </defs>
       <use xlink:href="#DejaVuSerif-31"/>
       <use xlink:href="#DejaVuSerif-30" x="63.623047"/>
       <use xlink:href="#DejaVuSerif-30" x="127.246094"/>
       <use xlink:href="#DejaVuSerif-25" x="190.869141"/>
      </g>
     </g>
    </g>
    <g id="text_22">
     <!-- Percentage -->
     <g transform="translate(407.845625 594.874687) scale(0.13 -0.13)">
      <defs>
       <path id="DejaVuSerif-50" d="M 1581 2375 
L 2406 2375 
Q 2872 2375 3115 2626 
Q 3359 2878 3359 3353 
Q 3359 3831 3115 4081 
Q 2872 4331 2406 4331 
L 1581 4331 
L 1581 2375 
z
M 353 0 
L 353 331 
L 947 331 
L 947 4331 
L 353 4331 
L 353 4666 
L 2559 4666 
Q 3259 4666 3668 4311 
Q 4078 3956 4078 3353 
Q 4078 2753 3668 2397 
Q 3259 2041 2559 2041 
L 1581 2041 
L 1581 331 
L 2303 331 
L 2303 0 
L 353 0 
z
" transform="scale(0.015625)"/>
      </defs>
      <use xlink:href="#DejaVuSerif-50"/>
      <use xlink:href="#DejaVuSerif-65" x="62.785156"/>
      <use xlink:href="#DejaVuSerif-72" x="121.964844"/>
      <use xlink:href="#DejaVuSerif-63" x="169.767578"/>
      <use xlink:href="#DejaVuSerif-65" x="225.773438"/>
      <use xlink:href="#DejaVuSerif-6e" x="284.953125"/>
      <use xlink:href="#DejaVuSerif-74" x="349.357422"/>
      <use xlink:href="#DejaVuSerif-61" x="389.542969"/>
      <use xlink:href="#DejaVuSerif-67" x="449.162109"/>
      <use xlink:href="#DejaVuSerif-65" x="513.175781"/>
     </g>
    </g>
   </g>
   <g id="matplotlib.axis_8">
    <g id="ytick_4">
     <g id="text_23">
      <!-- If no, where? -->
      <g transform="translate(108.25 507.41788) scale(0.16 -0.16)">
       <use xlink:href="#DejaVuSerif-49"/>
       <use xlink:href="#DejaVuSerif-66" x="39.501953"/>
       <use xlink:href="#DejaVuSerif-20" x="76.513672"/>
       <use xlink:href="#DejaVuSerif-6e" x="108.300781"/>
       <use xlink:href="#DejaVuSerif-6f" x="172.705078"/>
       <use xlink:href="#DejaVuSerif-2c" x="232.910156"/>
       <use xlink:href="#DejaVuSerif-20" x="264.697266"/>
       <use xlink:href="#DejaVuSerif-77" x="296.484375"/>
       <use xlink:href="#DejaVuSerif-68" x="382.080078"/>
       <use xlink:href="#DejaVuSerif-65" x="446.484375"/>
       <use xlink:href="#DejaVuSerif-72" x="505.664062"/>
       <use xlink:href="#DejaVuSerif-65" x="553.466797"/>
       <use xlink:href="#DejaVuSerif-3f" x="612.646484"/>
      </g>
     </g>
    </g>
   </g>
   <g id="patch_40">
    <path d="M 221.85 561.6 
L 668.25 561.6 
" style="fill: none; stroke: #000000; stroke-width: 0.8; stroke-linejoin: miter; stroke-linecap: square"/>
   </g>
   <g id="legend_4">
    <g id="patch_41">
     <path d="M 679.45 562.45163 
L 864.5825 562.45163 
Q 867.7825 562.45163 867.7825 559.25163 
L 867.7825 443.42663 
Q 867.7825 440.22663 864.5825 440.22663 
L 679.45 440.22663 
Q 676.25 440.22663 676.25 443.42663 
L 676.25 559.25163 
Q 676.25 562.45163 679.45 562.45163 
z
" style="fill: #ffffff; opacity: 0.8; stroke: #cccccc; stroke-linejoin: miter"/>
    </g>
    <g id="patch_42">
     <path d="M 682.65 458.78413 
L 714.65 458.78413 
L 714.65 447.58413 
L 682.65 447.58413 
z
" style="fill: #e3bddd"/>
    </g>
    <g id="text_24">
     <!-- Work - in person -->
     <g transform="translate(727.45 458.78413) scale(0.16 -0.16)">
      <use xlink:href="#DejaVuSerif-57"/>
      <use xlink:href="#DejaVuSerif-6f" x="96.033203"/>
      <use xlink:href="#DejaVuSerif-72" x="156.238281"/>
      <use xlink:href="#DejaVuSerif-6b" x="204.041016"/>
      <use xlink:href="#DejaVuSerif-20" x="264.636719"/>
      <use xlink:href="#DejaVuSerif-2d" x="296.423828"/>
      <use xlink:href="#DejaVuSerif-20" x="330.212891"/>
      <use xlink:href="#DejaVuSerif-69" x="362"/>
      <use xlink:href="#DejaVuSerif-6e" x="393.982422"/>
      <use xlink:href="#DejaVuSerif-20" x="458.386719"/>
      <use xlink:href="#DejaVuSerif-70" x="490.173828"/>
      <use xlink:href="#DejaVuSerif-65" x="554.1875"/>
      <use xlink:href="#DejaVuSerif-72" x="613.367188"/>
      <use xlink:href="#DejaVuSerif-73" x="661.169922"/>
      <use xlink:href="#DejaVuSerif-6f" x="712.488281"/>
      <use xlink:href="#DejaVuSerif-6e" x="772.693359"/>
     </g>
    </g>
    <g id="patch_43">
     <path d="M 682.65 482.26913 
L 714.65 482.26913 
L 714.65 471.06913 
L 682.65 471.06913 
z
" style="fill: #c292c5"/>
    </g>
    <g id="text_25">
     <!-- Home -->
     <g transform="translate(727.45 482.26913) scale(0.16 -0.16)">
      <use xlink:href="#DejaVuSerif-48"/>
      <use xlink:href="#DejaVuSerif-6f" x="87.207031"/>
      <use xlink:href="#DejaVuSerif-6d" x="147.412109"/>
      <use xlink:href="#DejaVuSerif-65" x="242.236328"/>
     </g>
    </g>
    <g id="patch_44">
     <path d="M 682.65 505.75413 
L 714.65 505.75413 
L 714.65 494.55413 
L 682.65 494.55413 
z
" style="fill: #986ca9"/>
    </g>
    <g id="text_26">
     <!-- Work - remote -->
     <g transform="translate(727.45 505.75413) scale(0.16 -0.16)">
      <use xlink:href="#DejaVuSerif-57"/>
      <use xlink:href="#DejaVuSerif-6f" x="96.033203"/>
      <use xlink:href="#DejaVuSerif-72" x="156.238281"/>
      <use xlink:href="#DejaVuSerif-6b" x="204.041016"/>
      <use xlink:href="#DejaVuSerif-20" x="264.636719"/>
      <use xlink:href="#DejaVuSerif-2d" x="296.423828"/>
      <use xlink:href="#DejaVuSerif-20" x="330.212891"/>
      <use xlink:href="#DejaVuSerif-72" x="362"/>
      <use xlink:href="#DejaVuSerif-65" x="409.802734"/>
      <use xlink:href="#DejaVuSerif-6d" x="468.982422"/>
      <use xlink:href="#DejaVuSerif-6f" x="563.806641"/>
      <use xlink:href="#DejaVuSerif-74" x="624.011719"/>
      <use xlink:href="#DejaVuSerif-65" x="664.197266"/>
     </g>
    </g>
    <g id="patch_45">
     <path d="M 682.65 529.23913 
L 714.65 529.23913 
L 714.65 518.03913 
L 682.65 518.03913 
z
" style="fill: #674a82"/>
    </g>
    <g id="text_27">
     <!-- Transportation -->
     <g transform="translate(727.45 529.23913) scale(0.16 -0.16)">
      <defs>
       <path id="DejaVuSerif-54" d="M 1222 0 
L 1222 331 
L 1819 331 
L 1819 4294 
L 447 4294 
L 447 3566 
L 63 3566 
L 63 4666 
L 4206 4666 
L 4206 3566 
L 3822 3566 
L 3822 4294 
L 2450 4294 
L 2450 331 
L 3047 331 
L 3047 0 
L 1222 0 
z
" transform="scale(0.015625)"/>
      </defs>
      <use xlink:href="#DejaVuSerif-54"/>
      <use xlink:href="#DejaVuSerif-72" x="66.699219"/>
      <use xlink:href="#DejaVuSerif-61" x="114.501953"/>
      <use xlink:href="#DejaVuSerif-6e" x="174.121094"/>
      <use xlink:href="#DejaVuSerif-73" x="238.525391"/>
      <use xlink:href="#DejaVuSerif-70" x="289.84375"/>
      <use xlink:href="#DejaVuSerif-6f" x="353.857422"/>
      <use xlink:href="#DejaVuSerif-72" x="414.0625"/>
      <use xlink:href="#DejaVuSerif-74" x="461.865234"/>
      <use xlink:href="#DejaVuSerif-61" x="502.050781"/>
      <use xlink:href="#DejaVuSerif-74" x="561.669922"/>
      <use xlink:href="#DejaVuSerif-69" x="601.855469"/>
      <use xlink:href="#DejaVuSerif-6f" x="633.837891"/>
      <use xlink:href="#DejaVuSerif-6e" x="694.042969"/>
     </g>
    </g>
    <g id="patch_46">
     <path d="M 682.65 552.72413 
L 714.65 552.72413 
L 714.65 541.52413 
L 682.65 541.52413 
z
" style="fill: #382b52"/>
    </g>
    <g id="text_28">
     <!-- Other -->
     <g transform="translate(727.45 552.72413) scale(0.16 -0.16)">
      <use xlink:href="#DejaVuSerif-4f"/>
      <use xlink:href="#DejaVuSerif-74" x="81.982422"/>
      <use xlink:href="#DejaVuSerif-68" x="122.167969"/>
      <use xlink:href="#DejaVuSerif-65" x="186.572266"/>
      <use xlink:href="#DejaVuSerif-72" x="245.751953"/>
     </g>
    </g>
   </g>
  </g>
 </g>
 <defs>
  <clipPath id="pd59c634e78">
   <rect x="221.85" y="7.2" width="446.4" height="120.521739"/>
  </clipPath>
  <clipPath id="peb801ba04d">
   <rect x="221.85" y="151.826087" width="446.4" height="120.521739"/>
  </clipPath>
  <clipPath id="p9545cdcbe4">
   <rect x="221.85" y="296.452174" width="446.4" height="120.521739"/>
  </clipPath>
  <clipPath id="p105470411d">
   <rect x="221.85" y="441.078261" width="446.4" height="120.521739"/>
  </clipPath>
 </defs>
</svg>
